<?xml version="1.0" encoding="utf-8"?>
<!-- Generator: Adobe Illustrator 19.2.1, SVG Export Plug-In . SVG Version: 6.00 Build 0)  -->
<svg version="1.1" id="图层_1" xmlns="http://www.w3.org/2000/svg" xmlns:xlink="http://www.w3.org/1999/xlink" x="0px" y="0px"
	 viewBox="0 0 220 48" style="enable-background:new 0 0 220 48;" xml:space="preserve">
<style type="text/css">
	.st0{fill:#FFFFFF;}
	.st1{font-family:'MicrosoftYaHei';}
	.st2{font-size:21.9547px;}
	.st3{font-size:18.8971px;}
</style>
<g>
	<polygon class="st0" points="20.9,38.9 11.9,23.1 14.2,19.1 23.3,34.8 41.4,34.8 41.4,34.9 39.1,38.9 	"/>
	<polygon class="st0" points="42.6,45 24.5,45 22.1,40.9 40.3,40.9 49.3,25.2 51.7,29.3 	"/>
	<polygon class="st0" points="58.7,29.3 49.7,45 45,45 54,29.3 45,13.5 49.7,13.5 	"/>
	<polygon class="st0" points="62.3,23.1 59.9,27.2 50.8,11.5 32.7,11.5 35,7.4 53.2,7.4 	"/>
	<polygon class="st0" points="31.5,1.3 49.7,1.3 52,5.4 33.9,5.4 24.8,21.1 22.4,17 	"/>
	<polygon class="st0" points="20.1,17 29.2,32.8 24.5,32.8 15.4,17 24.5,1.3 29.2,1.3 	"/>
</g>
<text transform="matrix(1 0 0 1 70.5908 19.8306)"><tspan x="0" y="0" class="st0 st1 st2">AVALON基础服务平台 </tspan><tspan x="0" y="22.7" class="st0 st1 st3">一公开抽查系统</tspan></text>
</svg>
