<?xml version="1.0" encoding="utf-8"?>
<!-- Generator: Adobe Illustrator 16.0.0, SVG Export Plug-In . SVG Version: 6.00 Build 0)  -->
<!DOCTYPE svg PUBLIC "-//W3C//DTD SVG 1.1//EN" "http://www.w3.org/Graphics/SVG/1.1/DTD/svg11.dtd">
<svg version="1.1" id="图层_1" xmlns="http://www.w3.org/2000/svg" xmlns:xlink="http://www.w3.org/1999/xlink" x="0px" y="0px"
	 width="960px" height="560px" viewBox="0 0 960 560" enable-background="new 0 0 960 560" xml:space="preserve">
<g>
	<circle fill="#FFB400" cx="289.281" cy="217.062" r="18.205"/>
	<linearGradient id="SVGID_1_" gradientUnits="userSpaceOnUse" x1="216.5" y1="311.0491" x2="534.0645" y2="311.0491">
		<stop  offset="0" style="stop-color:#FFE100"/>
		<stop  offset="1" style="stop-color:#EE3327"/>
	</linearGradient>
	<path fill="url(#SVGID_1_)" d="M260.984,286.516c1.788-46.212,39.757-51.622,58.873-45.067
		c14.546,4.988,25.421,13.011,25.421,13.011s26.12-59.362,85.481-81.919c59.363-22.558,102.625,10.72,103.291,48.677
		c0.57,32.542-16.285,102.697-92.438,156.716c-76.151,54.021-143.733,78.767-174.692,78.952
		c-23.935,0.144-59.956-13.06-48.083-75.39c11.873-62.331,12.466-39.18,12.466-39.18s1.187,67.079,36.804,70.048
		c35.618,2.968,99.135-16.028,143.063-67.079c43.928-51.052,46.516-73.658,36.021-87.569c-22.161-29.375-53.025,3.706-59.172,9.41
		c-9.18,8.52-31.462,38.98-31.462,38.98s-40.357-29.394-54.209-10.398c-13.853,18.996,5.138,47.146,12.656,57.294
		c16.116,21.753,31.462,32.649,31.462,32.649l-23.151,10.092C323.315,395.742,259.027,337.108,260.984,286.516z"/>
	<linearGradient id="SVGID_2_" gradientUnits="userSpaceOnUse" x1="386.2388" y1="333.4475" x2="746.5674" y2="333.4475">
		<stop  offset="0" style="stop-color:#FFE100"/>
		<stop  offset="0.9951" style="stop-color:#2186F4"/>
	</linearGradient>
	<path fill="url(#SVGID_2_)" d="M386.239,428.391l18.996-15.434c0,0,74.75,14.84,129.386-54.613
		c54.637-69.454,64.729-87.263,97.971-106.852c33.243-19.59,57.581-23.151,57.581-23.151s2.969,16.028,27.307,25.526
		c24.339,9.498,29.088,11.872,29.088,11.872s-33.243-6.53-94.979,42.147c-61.736,48.677-105.665,87.263-123.474,100.322
		s-38.585,26.713-62.924,29.087C440.852,439.67,420.075,439.67,386.239,428.391z"/>
	<path fill="#FFB400" d="M457.474,139.891c0,12.457-10.101,22.558-22.558,22.558c-12.457,0-22.558-10.101-22.558-22.558
		c0-12.461,10.101-22.558,22.558-22.558C447.373,117.333,457.474,127.429,457.474,139.891z"/>
</g>
</svg>
